<svg width="155" height="155" viewBox="0 0 155 155" fill="none" xmlns="http://www.w3.org/2000/svg">
<path d="M73.0395 0.0993264C57.4198 1.103 42.5319 6.68595 30.676 15.949C17.1682 26.5085 7.67512 40.9364 3.28403 57.6016C2.42673 60.8635 1.92489 63.54 1.36032 67.7429C0.942124 70.7539 0.879395 72.2385 0.879395 77.466C0.879395 82.7353 0.942124 84.1153 1.33941 86.9382C2.76129 96.9331 5.29139 105.025 9.66156 113.389C14.4081 122.527 21.2666 131.142 28.7314 137.331C40.3991 147.012 53.9069 152.742 69.2339 154.54C72.8095 154.958 80.9434 155.021 85.1254 154.644C110.991 152.344 134.076 136.62 146.099 113.117C147.102 111.152 148.336 108.517 148.859 107.263C155.278 91.5802 156.533 74.5177 152.455 58.2916C149.821 47.8157 145.158 38.3645 138.216 29.3732C135.895 26.3831 129.162 19.5874 126.109 17.1618C114.378 7.83599 99.8878 1.91849 85.1254 0.433885C80.9643 0.0156868 76.3223 -0.109773 73.0395 0.0993264ZM85.23 8.79785C102.752 10.7425 119.229 19.5874 130.542 33.137C138.738 42.9228 143.945 54.9251 146.015 68.7884C146.475 71.9458 146.538 81.5643 146.12 85.0981C144.321 99.8814 138.174 113.264 127.928 124.618C120.819 132.522 111.367 138.795 100.766 142.684C90.6665 146.364 78.2461 147.535 67.1429 145.82C53.9278 143.813 41.5283 137.979 32.4115 129.49C22.1239 119.955 15.2027 108.852 11.6062 96.2013C6.56689 78.386 8.82516 59.5253 17.9628 43.2783C29.296 23.1002 49.934 10.0524 73.1022 8.46329C76.3851 8.23328 81.5498 8.37965 85.23 8.79785Z" fill="#16A34A"/>
<path d="M69.9659 17.5591C56.9181 19.211 45.6268 24.5848 36.0082 33.7852C29.1916 40.2882 23.9223 48.5894 20.974 57.3925C18.5066 64.8155 17.5447 71.3603 17.7538 79.4106C17.9002 85.1817 18.5275 89.301 20.1167 94.8003C22.6886 103.624 28.5015 113.556 34.7745 119.85L36.51 121.565V123.74C36.51 129.887 39.9183 135.073 45.6477 137.603C47.2577 138.335 50.2478 138.941 52.2134 138.941C55.559 138.941 59.3855 137.457 61.8947 135.156C65.4703 131.874 66.8712 127.482 66.3694 121.147C66.0348 116.881 66.5785 114.539 68.8158 110.713C69.4431 109.625 71.4923 106.071 73.3533 102.809C76.6152 97.1004 76.7616 96.8913 77.0753 97.3304C77.4935 97.9577 83.9128 108.308 85.732 111.277C86.5056 112.574 87.3838 114.163 87.6557 114.853C88.3875 116.693 88.7848 119.39 88.7848 122.715C88.7848 128.779 90.2694 132.543 93.8241 135.533C96.6051 137.875 99.4489 138.837 103.526 138.816C105.931 138.816 106.433 138.753 107.917 138.23C110.385 137.394 112.288 136.181 114.295 134.153C117.16 131.267 118.477 128.152 118.602 123.886L118.665 121.69L121.028 119.286C125.21 115.041 128.576 110.148 131.65 103.917C135.999 95.0721 137.944 86.8545 137.944 77.4242C137.923 66.1955 134.954 55.6988 128.932 45.6202C126.046 40.7691 121.446 35.3743 116.909 31.4642C107.666 23.5602 96.1869 18.73 83.5782 17.4545C80.6508 17.1618 72.6633 17.2245 69.9659 17.5591ZM81.2572 25.6094C84.7492 25.8812 88.4502 26.5294 91.4613 27.3868C103.024 30.6905 113.396 37.9463 119.941 47.3348C130.584 62.5572 132.528 81.1879 125.252 97.9368C123.182 102.662 120.38 107.242 117.201 111.005C116.24 112.156 115.34 113.117 115.236 113.159C115.11 113.201 114.504 112.804 113.877 112.281C112.497 111.152 110.071 109.855 108.336 109.333C107.646 109.124 107.039 108.935 106.997 108.894C106.956 108.873 107.792 107.932 108.858 106.823C117.954 97.3095 122.032 84.0944 120.045 70.6494C119.355 66.1119 118.226 62.5572 116.072 58.1243C113.793 53.4405 110.824 49.2794 107.541 46.1638C105.952 44.6583 103.673 42.8392 103.547 42.9855C103.296 43.3201 101.519 46.7493 96.9397 55.8242C92.1304 65.3382 89.5166 70.3984 84.7701 79.4942L83.0973 82.6935L84.6028 85.5372L86.1083 88.381L87.5093 85.7045C88.283 84.2199 90.123 80.6234 91.6076 77.7378C93.2386 74.5595 94.3677 72.5731 94.4723 72.7194C94.8069 73.3258 95.0996 76.8387 94.9741 78.616C94.6814 83.0907 92.8413 86.7918 89.1403 90.4719L87.4047 92.1866L89.1612 95.2185C90.123 96.8913 91.0431 98.4804 91.2103 98.7523L91.524 99.2332L92.8204 98.2295C94.9323 96.6195 97.8179 93.5875 99.0934 91.6429C104.258 83.8644 104.739 73.4513 100.306 65.2337L99.3025 63.3518L101.498 59.0653C102.711 56.7024 103.735 54.7369 103.777 54.6742C104.049 54.3605 107.102 58.9607 108.419 61.679C113.291 71.653 113.27 82.8816 108.356 92.6884C105.868 97.644 102.711 101.491 97.1069 106.405C95.2041 108.057 93.7404 109.855 92.6531 111.8C92.2349 112.595 91.8167 113.222 91.7122 113.222C91.6285 113.222 91.2313 112.678 90.834 112.009C90.4367 111.361 87.6766 106.865 84.7074 102.035C77.7025 90.6183 73.416 83.1117 67.4776 71.9458C64.132 65.6519 60.5564 58.8562 56.6045 51.2868L52.1506 42.7555L51.2097 43.4456C44.874 47.9621 39.5211 55.5733 36.8655 63.8118C33.9799 72.6776 33.9799 82.1498 36.8446 90.8483C38.8729 97.0377 41.863 102.098 46.3377 106.991C47.7805 108.538 47.9896 108.852 47.655 108.956C44.9995 109.897 42.3857 111.298 40.9848 112.532C40.5666 112.908 40.1902 113.222 40.1484 113.222C40.1065 113.222 39.7092 112.825 39.2701 112.365C34.0636 106.593 29.6725 98.4804 27.707 90.9738C26.2433 85.3072 25.6996 78.6369 26.2433 72.7194C27.0797 63.6864 30.1743 55.176 35.4018 47.5648C38.9147 42.4419 44.0794 37.4444 49.3696 33.9943C58.8627 27.8049 70.405 24.773 81.2572 25.6094ZM52.4016 54.2769C52.4016 54.4024 53.3425 56.2842 54.5135 58.438L56.6254 62.3899L55.7053 64.0209C53.0289 68.8302 51.7743 73.8067 52.0461 78.5115C52.5479 86.6873 55.7471 92.772 62.271 97.9995L64.0902 99.4423L62.3756 102.202C61.4556 103.729 60.4519 105.402 60.1591 105.945C59.8664 106.489 59.5318 106.949 59.4273 106.949C59.1346 106.949 56.8136 105.234 55.4126 103.98C50.6242 99.6932 46.9023 94.2357 45.0831 88.7992C41.6539 78.5324 43.0967 67.1574 48.9932 58.0198C50.7915 55.2597 52.4016 53.4823 52.4016 54.2769ZM63.2956 74.685C64.2366 76.5041 65.2193 78.3233 65.4703 78.7206C65.7212 79.1179 66.5785 80.7279 67.394 82.2753C68.2095 83.8226 69.2549 85.7463 69.715 86.5618L70.5305 88.0255L70.0704 88.7573C69.8195 89.1546 69.3386 90.0119 69.0249 90.6392C68.7113 91.2665 68.4186 91.8311 68.3767 91.8729C68.1885 92.0611 66.453 90.6392 65.073 89.1546C60.7655 84.4917 59.3437 78.5742 61.0792 72.5731C61.2674 71.9249 61.4556 71.4021 61.4974 71.4021C61.5392 71.4021 62.3547 72.8867 63.2956 74.685ZM55.2244 117.069C58.8836 118.868 60.5773 122.82 59.2809 126.562C58.6118 128.444 56.6672 130.494 54.8062 131.204C52.8825 131.957 50.6242 131.894 48.8469 131.058C47.1323 130.264 45.8986 129.03 45.0413 127.273C44.414 125.977 44.3512 125.726 44.3512 123.886C44.3722 122.15 44.4349 121.774 44.9367 120.812C46.505 117.78 48.9096 116.317 52.1925 116.421C53.6771 116.463 54.1789 116.568 55.2244 117.069ZM106.391 117.048C107.834 117.759 109.548 119.537 110.28 121.105C110.761 122.15 110.845 122.59 110.845 124.2C110.845 125.893 110.782 126.207 110.176 127.336C108.586 130.41 105.074 132.271 102.042 131.664C99.3443 131.121 97.1906 129.511 96.1451 127.273C95.6642 126.249 95.5805 125.81 95.5805 124.095C95.5805 122.36 95.6432 121.962 96.1451 120.959C97.6924 117.822 100.181 116.296 103.547 116.421C104.885 116.484 105.492 116.609 106.391 117.048Z" fill="#16A34A"/>
<path d="M73.0185 34.3916C68.5647 34.7889 63.609 36.0853 59.7616 37.8417C58.2352 38.5527 58.0261 38.699 58.1306 39.0963C58.1934 39.3472 58.9043 40.9364 59.7198 42.6092C60.5144 44.3029 61.1835 45.7666 61.1835 45.8711C61.1835 46.373 61.7271 46.2684 63.8181 45.3693C68.2301 43.4874 72.7258 42.5464 77.305 42.5464C82.6789 42.5674 88.3873 43.8429 92.4856 45.9757L94.263 46.8957L94.7439 45.7875C95.0157 45.1811 95.8521 43.4456 96.6049 41.9401L97.9849 39.2218L96.2494 38.3854C92.7993 36.7335 88.2409 35.3743 83.8707 34.7052C81.257 34.3079 75.7577 34.1407 73.0185 34.3916Z" fill="#16A34A"/>
<path d="M74.3568 51.7468C72.3495 51.9977 69.443 52.7296 68.0002 53.3569C66.181 54.1514 66.1392 54.1933 66.5992 54.8624C66.8083 55.1551 67.6656 56.6815 68.502 58.2289C69.3384 59.7762 70.0912 61.1563 70.1957 61.2817C70.3212 61.4281 70.9485 61.3026 72.2031 60.8635C73.9386 60.2571 74.2104 60.2153 77.1796 60.2153C80.6089 60.2153 81.8635 60.4662 84.3517 61.6163C85.0836 61.9508 85.7318 62.2018 85.7736 62.139C86.0036 61.9299 89.8301 55.0087 89.8301 54.8206C89.8301 54.7369 89.0356 54.2769 88.0737 53.8169C84.1635 51.9977 78.9779 51.2031 74.3568 51.7468Z" fill="#16A34A"/>
</svg>
