<svg width="506" height="613" viewBox="0 0 506 613" fill="none" xmlns="http://www.w3.org/2000/svg">
<path d="M148.465 18.3043C163.771 30.4068 175.279 45.7521 181.903 64.1168C182.274 65.1379 182.274 65.1379 182.652 66.1798C189.817 87.304 186.422 112.927 177.282 132.746C175.537 136.163 173.662 139.171 171.465 142.304C173.017 146.178 175.417 148.266 178.528 150.992C184.705 156.491 190.53 162.304 196.325 168.201C200.3 172.224 204.376 176.034 208.662 179.723C211.043 181.811 213.257 184.036 215.465 186.304C219.008 189.89 222.641 193.253 226.469 196.527C228.727 198.537 230.843 200.653 232.965 202.804C238.482 208.387 244.336 213.412 250.465 218.304C253.657 215.142 256.843 211.974 260.028 208.804C260.923 207.917 261.818 207.031 262.741 206.117C263.621 205.24 264.5 204.364 265.407 203.461C266.208 202.665 267.009 201.869 267.835 201.048C269.833 198.964 271.718 196.864 273.594 194.674C277.818 189.81 282.371 185.286 286.942 180.752C288.509 179.198 290.073 177.641 291.636 176.083C294.951 172.779 298.271 169.479 301.59 166.179C305.449 162.344 309.306 158.508 313.159 154.667C314.691 153.141 316.225 151.619 317.76 150.097C326.032 143.148 326.032 143.148 330.473 134.277C330.036 133.331 330.036 133.331 329.59 132.367C329.276 131.609 328.961 130.851 328.637 130.07C328.251 129.157 327.864 128.245 327.465 127.304C326.57 124.747 325.695 122.188 324.84 119.617C324.415 118.375 323.99 117.134 323.551 115.855C318.651 99.833 319.489 78.894 325.465 63.3043C325.816 62.2924 326.167 61.2804 326.528 60.2379C335.44 36.5036 354.781 17.9472 377.465 7.30427C400.538 -2.34723 424.407 -2.21443 447.665 6.50349C450.346 7.6547 452.895 8.92555 455.465 10.3043C456.413 10.7825 457.36 11.2608 458.337 11.7535C466.924 16.3657 473.645 22.4449 480.465 29.3043C481.156 29.9952 481.847 30.6861 482.559 31.398C500.151 50.2689 506.084 73.8855 505.747 98.8668C504.974 120.798 494.795 141.118 480.465 157.304C479.562 158.35 479.562 158.35 478.641 159.418C466.128 172.962 447.463 182.268 429.465 185.304C428.747 185.434 428.029 185.565 427.29 185.699C401.799 189.411 380.392 182.415 359.723 167.773C357.635 166.123 357.635 166.123 355.465 166.304C355.104 167.007 354.743 167.71 354.371 168.434C346.748 183.243 338.998 197.962 330.972 212.558C328.327 217.38 325.709 222.217 323.09 227.054C322.554 228.046 322.017 229.037 321.464 230.058C317.431 237.509 313.416 244.968 309.403 252.429C301.869 266.43 294.295 280.408 286.583 294.312C285.21 296.788 283.837 299.265 282.465 301.742C282.127 302.352 281.789 302.962 281.441 303.591C274.912 315.391 268.625 327.307 262.465 339.304C263.237 339.079 264.008 338.853 264.803 338.621C290.514 331.113 316.255 323.736 342.136 316.834C349.523 314.853 356.876 312.768 364.215 310.617C365.213 310.325 366.21 310.034 367.237 309.733C371.43 308.503 375.618 307.263 379.794 305.976C391.323 302.493 391.323 302.493 397.465 303.304C399.528 304.429 399.528 304.429 400.465 306.304C400.126 311.137 398.966 313.392 395.59 316.804C391.862 320.738 388.453 324.765 385.153 329.054C381.386 333.925 377.504 338.656 373.465 343.304C369.068 348.372 364.861 353.549 360.746 358.848C356.533 364.258 352.181 369.547 347.811 374.831C339.661 384.689 331.596 394.616 323.622 404.617C320.183 408.902 316.71 413.16 313.243 417.421C310.302 421.037 307.371 424.66 304.465 428.304C293.007 442.67 281.314 456.851 269.629 471.033C264.169 477.66 258.723 484.299 253.305 490.961C248.78 496.516 244.19 502.01 239.55 507.47C236.67 510.863 233.834 514.287 231.028 517.742C227.07 522.606 223 527.363 218.907 532.113C215.876 535.637 212.896 539.195 209.965 542.804C206.533 547.032 203.02 551.18 199.465 555.304C195.146 560.317 190.914 565.39 186.743 570.527C183.721 574.212 180.635 577.84 177.549 581.471C174.67 584.864 171.833 588.287 169.028 591.742C168.31 592.614 167.592 593.487 166.852 594.386C165.566 595.959 164.284 597.534 163.023 599.126C161.478 601.074 159.911 603.002 158.34 604.929C157.622 605.854 157.622 605.854 156.89 606.798C154.205 610.047 152.976 611.173 148.751 612.261C145.465 612.304 145.465 612.304 143.028 611.367C140.645 608.221 140.953 605.06 141.465 601.304C142.57 598.02 144.091 595.004 145.673 591.925C146.109 591.044 146.545 590.164 146.995 589.256C148.408 586.411 149.843 583.576 151.278 580.742C152.258 578.778 153.236 576.813 154.212 574.847C156.117 571.014 158.028 567.184 159.945 563.357C162.834 557.58 165.64 551.768 168.403 545.929C169.224 544.202 170.046 542.476 170.868 540.75C171.278 539.889 171.687 539.028 172.11 538.141C174.876 532.353 177.673 526.58 180.465 520.804C184.109 513.269 187.745 505.731 191.343 498.173C196.895 486.515 202.549 474.907 208.215 463.304C217.075 445.163 217.075 445.163 225.896 427.003C226.512 425.732 227.129 424.46 227.746 423.19C231.75 414.938 235.65 406.645 239.465 398.304C232.316 399.83 225.27 401.64 218.215 403.554C217.071 403.864 215.926 404.173 214.747 404.492C206.083 406.843 197.447 409.283 188.821 411.769C182.796 413.503 176.755 415.184 170.715 416.867C163.739 418.811 156.778 420.789 149.84 422.867C143.016 424.895 136.157 426.782 129.278 428.617C128.297 428.884 127.316 429.151 126.305 429.426C117.187 431.825 117.187 431.825 112.465 431.304C110.528 429.679 110.528 429.679 109.465 427.304C109.867 422.817 111.103 419.692 113.387 415.839C114.297 414.286 114.297 414.286 115.225 412.702C115.882 411.602 116.539 410.501 117.215 409.367C118.248 407.613 119.277 405.857 120.306 404.101C121.006 402.907 121.706 401.714 122.408 400.522C125.688 394.948 128.865 389.32 132.028 383.679C136.968 374.902 142.007 366.187 147.095 357.495C151.414 350.115 155.698 342.715 159.965 335.304C165.338 325.977 170.743 316.67 176.176 307.378C179.301 302.03 182.411 296.673 185.501 291.304C185.838 290.718 186.175 290.133 186.523 289.529C188.152 286.697 189.78 283.865 191.405 281.031C191.993 280.007 192.582 278.984 193.188 277.929C193.743 276.961 194.297 275.993 194.868 274.996C196.682 271.939 198.643 269.009 200.713 266.121C201.848 263.382 201.428 262.123 200.465 259.304C198.896 256.521 197.102 253.911 195.286 251.285C194.758 250.509 194.231 249.732 193.688 248.933C191.996 246.447 190.294 243.969 188.59 241.492C187.483 239.868 186.376 238.244 185.27 236.619C182.013 231.839 178.741 227.071 175.465 222.304C174.471 220.854 173.476 219.405 172.481 217.955C167.086 210.094 161.665 202.252 156.215 194.429C155.233 193.018 155.233 193.018 154.231 191.578C149.986 185.48 145.729 179.389 141.465 173.304C137.039 174.084 133.705 175.578 129.715 177.679C124.408 180.399 119.268 182.856 113.465 184.304C112.257 184.61 112.257 184.61 111.024 184.921C86.2304 190.071 62.2125 184.846 41.192 171.175C20.8928 156.59 6.32988 135.656 1.27796 111.054C-2.67203 85.1303 2.44383 59.7288 17.8912 38.4232C32.4011 19.0869 54.7714 4.83195 78.7194 0.749582C103.504 -2.19664 128.205 3.51918 148.465 18.3043Z" fill="#0F7865"/>
<path d="M93.7779 34.9291C94.6046 34.9308 95.4313 34.9324 96.283 34.934C103.234 35.0724 109.107 36.4327 115.465 39.3041C116.187 39.6045 116.909 39.9049 117.653 40.2143C123.212 42.7222 127.835 46.3788 132.465 50.3041C133.074 50.8043 133.682 51.3045 134.309 51.8198C143.041 59.6788 149.468 72.1824 150.747 83.8767C150.865 86.4857 150.883 89.0679 150.84 91.6791C150.83 92.5989 150.819 93.5186 150.807 94.4663C150.422 110.948 144.215 124.873 132.563 136.57C120.348 147.918 104.847 151.794 88.5631 151.511C75.0631 151.003 62.3255 144.954 52.5904 135.648C39.6152 121.337 34.703 105.591 35.4654 86.3041C36.5878 71.4373 43.9075 59.5176 54.4029 49.2416C58.4356 45.79 62.7592 43.3247 67.4654 40.9291C68.1176 40.5952 68.7698 40.2613 69.4417 39.9172C77.2966 36.1164 85.1048 34.9113 93.7779 34.9291Z" fill="#212B36"/>
<path d="M446.911 45.3121C458.189 54.1068 467.166 65.6329 470.059 79.9254C472.261 98.2389 469.834 114.277 458.465 129.304C457.92 130.031 457.375 130.758 456.813 131.507C448.136 142.206 435.677 148.144 422.465 151.304C406.263 152.988 391.828 149.928 378.465 140.304C366.291 130.081 357.701 116.934 356.242 100.842C355.165 82.5876 358.693 68.0837 370.84 54.0543C390.951 32.6005 422.511 28.4419 446.911 45.3121Z" fill="#212B36"/>
<path d="M357.465 393.742C361.562 394.51 362.753 396.164 365.465 399.304C366.94 401.823 368.113 404.443 369.278 407.117C372.096 413.432 375.106 419.635 378.212 425.813C382.319 433.987 386.336 442.205 390.34 450.429C390.733 451.235 391.126 452.041 391.531 452.871C396.592 463.266 401.543 473.695 406.268 484.247C408.788 489.861 411.446 495.379 414.229 500.867C423.986 520.143 433.12 539.748 442.126 559.385C442.984 561.255 443.849 563.122 444.723 564.985C445.274 566.18 445.274 566.18 445.837 567.398C446.154 568.078 446.472 568.758 446.799 569.458C447.866 572.413 447.567 574.414 446.465 577.304C444.778 579.242 444.778 579.242 442.465 580.304C439.239 580.448 437.313 579.982 434.77 577.949C432.916 576.132 431.182 574.251 429.465 572.304C428.632 571.368 428.632 571.368 427.782 570.414C426.631 569.106 425.486 567.792 424.348 566.472C422.25 564.056 420.111 561.679 417.965 559.304C413.155 553.969 408.406 548.588 403.751 543.117C398.85 537.362 393.924 531.655 388.778 526.117C384.575 521.592 380.649 516.896 376.778 512.085C374.266 509.064 371.641 506.18 368.965 503.304C364.655 498.672 360.615 493.883 356.645 488.953C353.778 485.469 350.743 482.157 347.704 478.824C345.437 476.272 343.29 473.652 341.153 470.992C337.687 466.699 334.047 462.64 330.278 458.617C317.345 444.699 317.345 444.699 317.063 438.343C317.966 433.767 321.427 430.662 324.465 427.304C325.449 426.169 326.429 425.031 327.407 423.89C329.605 421.33 331.817 418.781 334.04 416.242C336.316 413.636 338.567 411.012 340.797 408.367C341.33 407.737 341.863 407.106 342.412 406.457C343.418 405.265 344.421 404.07 345.419 402.872C352.334 394.704 352.334 394.704 357.465 393.742Z" fill="#0F7865"/>
<path d="M255.653 251.367C259.758 254.195 263.221 257.814 265.465 262.304C265.973 267.86 266.228 272.723 263.778 277.804C259.241 282.709 255.398 286.064 248.653 286.617C243.608 286.448 239.47 285.214 235.731 281.652C230.962 276.281 230.109 272.171 230.184 265.031C230.707 259.961 233.314 257.341 236.965 254.054C243.073 249.779 248.506 248.984 255.653 251.367Z" fill="#212B36"/>
<path d="M286.465 181.304C286.795 182.294 287.125 183.284 287.465 184.304C282.515 189.254 277.565 194.204 272.465 199.304C271.805 198.974 271.145 198.644 270.465 198.304C275.519 192.341 280.883 186.773 286.465 181.304Z" fill="#046D6E"/>
<path d="M32.4655 23.3042C33.1255 23.6342 33.7855 23.9642 34.4655 24.3042C30.8355 27.9342 27.2055 31.5642 23.4655 35.3042C22.8055 34.9742 22.1455 34.6442 21.4655 34.3042C22.5437 33.0291 23.6283 31.7593 24.7155 30.4917C25.3187 29.784 25.922 29.0763 26.5436 28.3472C28.3892 26.3853 30.2649 24.8475 32.4655 23.3042Z" fill="#057172"/>
</svg>
